<?xml version="1.0" encoding="UTF-8"?>
<svg id="_レイヤー_2" data-name="レイヤー 2" xmlns="http://www.w3.org/2000/svg" viewBox="0 0 82.75 72.7">
  <defs>
    <style>
      .cls-1 {
        fill: #fff;
      }
    </style>
  </defs>
  <g id="_レイヤー_2-2" data-name="レイヤー 2">
    <path class="cls-1" d="M36.73,71.25c22.62-6.09,30.93-22.72,30.93-37.22,0-18.56-5.99-30.74-24.17-30.74-3.09,0-6.38.58-9.18,1.35,4.45,1.64,9.09,5.32,9.09,13.15,0,19.33-12.37,46.11-27.16,46.11C6.77,63.9,0,55.59,0,40.7,0,21.07,16.43,0,43.79,0c24.17,0,38.96,13.82,38.96,34.51s-11.31,35.48-45.63,38.18l-.39-1.45ZM31.51,5.32c-13.73,5.41-19.62,20.01-19.62,34.8,0,6.28,1.45,9.18,4.54,9.18,6.57,0,17.21-20.3,17.21-37.99,0-3.48-1.26-5.22-2.13-5.99Z"/>
  </g>
</svg>