<?xml version="1.0" encoding="UTF-8"?>
<svg id="_レイヤー_2" data-name="レイヤー 2" xmlns="http://www.w3.org/2000/svg" viewBox="0 0 163.29 158.78">
  <defs>
    <style>
      .cls-1 {
        fill: #fff;
      }
    </style>
  </defs>
  <g id="_レイヤー_2-2" data-name="レイヤー 2">
    <path class="cls-1" d="M90.35,38.82c-1.17,1.84-3.68,2.34-8.03,2.34h-9.2c-2.68,17.23-6.69,33.96-12.55,49.19,11.71,11.88,16.23,23.76,16.23,32.96,0,10.37-5.69,17.23-13.05,17.23-3.18,0-6.69-1.17-10.21-4.18-1-6.69-2.84-13.89-5.52-20.91-11.04,17.23-26.1,31.96-47.02,43l-.84-1.84c18.24-16.56,29.95-37.98,37.48-62.41-7.53-12.38-16.9-23.76-27.44-31.96l1.5-1.34c12.05,4.68,22.25,9.7,30.62,14.89,2.34-11.04,4.01-22.75,5.19-34.63H.67l-.67-2.68h30.62V0l29.95,2.84c-.33,2.34-1.84,3.51-6.53,4.18v31.45h5.02l11.04-15.56,20.24,15.89ZM147.06,33.8l16.23,16.56c-1.34,1.84-3.68,2.34-8.03,2.34h-15.56v77.46c0,14.89-3.51,26.1-29.45,28.61-.33-15.73-3.51-21.08-19.91-23.59v-2.17h23.09c1.84,0,2.51-.84,2.51-2.68V52.7h-37.98l-.67-2.68h38.65V.84l30.28,2.51c-.17,2.17-1,3.68-6.53,4.35v39.15l7.36-13.05ZM81.31,68.09c22.76,7.86,30.45,19.07,30.45,27.94,0,8.37-6.69,14.72-13.72,14.72-3.85,0-7.7-1.84-10.87-6.02.33-2.17.33-4.35.33-6.69,0-10.21-2.68-21.58-7.53-29.11l1.34-.84Z"/>
  </g>
</svg>