<?xml version="1.0" encoding="UTF-8"?>
<svg id="_レイヤー_2" data-name="レイヤー 2" xmlns="http://www.w3.org/2000/svg" viewBox="0 0 62.06 80.91">
  <defs>
    <style>
      .cls-1 {
        fill: #fff;
      }
    </style>
  </defs>
  <g id="_レイヤー_2-2" data-name="レイヤー 2">
    <path class="cls-1" d="M40.02,20.49c1.06-1.84,3.77-2.61,7.25-2.61,6.28,0,13.24,8.12,13.24,12.47,0,5.61-4.83,5.51-9.96,6.38-18.56,3.29-42.15,12.08-42.15,24.07,0,7.35,8.6,8.31,19.62,8.31,7.06,0,17.4-1.26,20.49-3.77,7.44,1.06,13.53,3.67,13.53,8.22,0,5.32-6.57,7.35-33.25,7.35-13.53,0-28.81-3.58-28.81-18.85,0-10.44,10.54-17.98,19.04-23.2-6.77-2.22-6.77-10.73-6.77-26.2,0-2.71-.39-5.32-2.22-6.19-1.45-.68-2.71-1.06-3.96-1.06-.48,0-.97.1-1.45.19l-.29-.58C5.61,1.45,9.38,0,12.76,0c8.02.1,13.82,5.41,13.82,10.25,0,1.84-.58,3.77-1.26,5.9-.77,2.42-.97,5.9-.97,8.89,0,1.45,0,2.9.1,3.96.19,2.61,1.26,5.41,3.19,5.61,3.29-1.64,8.99-4.45,12.28-5.9,2.9-1.26,4.93-2.51,4.93-4.54,0-1.84-2.42-3.58-4.64-3.29l-.19-.39Z"/>
  </g>
</svg>