<?xml version="1.0" encoding="UTF-8"?>
<svg id="_レイヤー_2" data-name="レイヤー 2" xmlns="http://www.w3.org/2000/svg" viewBox="0 0 129.49 127.74">
  <defs>
    <style>
      .cls-1 {
        fill: #fff;
      }
    </style>
  </defs>
  <g id="_レイヤー_2-2" data-name="レイヤー 2">
    <path class="cls-1" d="M129.49,46.17c-1.08,1.48-2.96,1.88-6.6,1.88h-22.07v27.19h.13l6.87-9.02,18.58,12.92c-.81.94-2.42,2.15-5.11,2.69v38.63c0,.13-4.85,5.25-18.98,5.25v-10.36h-21.67v5.65c0,.4-2.56,6.73-18.04,6.73v-59.9l18.71,7.4h.67v-27.19h-26.11l-.54-2.15h26.65v-24.09c-8.48.94-17.36,1.48-25.57,1.75l5.38,3.9c-.94,1.62-2.96,1.88-6.33,1.88H.54l-.54-2.15h39.98l7.54-10.1,8.88,6.46-.27-1.75C73.76,16.69,95.97,7.13,107.01.27l18.04,16.69c-.94.81-2.15,1.21-3.77,1.21-1.48,0-3.37-.4-5.65-1.21-4.31.94-9.29,1.75-14.81,2.56v26.38h3.9l8.88-12.92,15.88,13.19ZM33.52,81.17l6.46-8.35,17.23,11.98c-.67.94-2.29,2.15-4.71,2.56v30.42c0,.27-4.44,4.71-17.63,4.71v-10.09h-10.63v9.02c0,.27-2.69,6.19-17.23,6.19v-53.44l17.77,7h8.75ZM39.98,35l13.86,10.1c-1.08,1.61-2.96,1.88-6.33,1.88H7.81l-.67-2.15h25.44l7.4-9.83ZM7.81,64.61l-.67-2.15h25.44l7.4-9.83,13.86,10.1c-1.08,1.62-2.96,1.88-6.33,1.88H7.81ZM53.84,10.37c-.94,1.48-2.96,1.88-6.33,1.88H8.48l-.67-2.15h24.23L39.71,0l14.13,10.37ZM24.23,110.24h10.63v-26.92h-10.63v26.92ZM102.3,77.4h-21.67v35.81h21.67v-35.81Z"/>
  </g>
</svg>